<?xml version="1.0" standalone="no"?>
<!DOCTYPE svg PUBLIC "-//W3C//DTD SVG 20010904//EN"
 "http://www.w3.org/TR/2001/REC-SVG-20010904/DTD/svg10.dtd">
<svg version="1.0" xmlns="http://www.w3.org/2000/svg"
 width="640.000000pt" height="640.000000pt" viewBox="0 0 640.000000 640.000000"
 preserveAspectRatio="xMidYMid meet">

<g transform="translate(0.000000,640.000000) scale(0.100000,-0.100000)"
fill="#000000" stroke="none">
<path d="M2950 6389 c-439 -38 -819 -146 -1205 -342 -1300 -661 -1986 -2124
-1665 -3552 274 -1221 1251 -2180 2475 -2429 226 -46 381 -60 645 -60 265 0
424 15 645 60 958 199 1776 827 2212 1699 164 328 265 657 315 1024 31 234 31
585 0 822 -51 377 -153 704 -325 1044 -150 295 -349 567 -587 805 -511 510
-1160 826 -1880 915 -154 19 -488 27 -630 14z m440 -424 c199 -46 367 -170
455 -336 59 -113 65 -156 65 -510 l0 -316 118 -5 c126 -5 152 -13 180 -55 15
-25 17 -57 14 -353 -2 -179 -7 -368 -12 -421 -19 -193 -96 -348 -250 -499
-154 -153 -322 -239 -544 -279 -59 -10 -113 -24 -119 -30 -6 -6 -13 -52 -15
-101 l-4 -91 -82 3 -81 3 -3 93 c-3 109 5 102 -142 127 -311 53 -592 260 -714
527 -64 137 -67 157 -77 574 -11 415 -9 439 43 477 21 16 48 21 142 25 l115 5
3 336 3 336 27 74 c119 325 495 503 878 416z m-1378 -3135 c52 -15 96 -55 108
-98 7 -24 10 -127 8 -288 l-3 -251 -28 -36 c-40 -52 -108 -71 -257 -71 -137 1
-193 15 -236 58 -50 50 -56 90 -52 345 3 197 5 231 22 264 23 46 73 74 154 87
67 10 231 5 284 -10z m-952 -175 l0 -185 60 0 60 0 0 185 0 186 113 -3 112 -3
0 -490 0 -490 -112 -3 -113 -3 0 236 0 235 -60 0 -60 0 -2 -232 -3 -233 -112
-3 -113 -3 0 236 0 235 -70 0 -70 0 0 75 0 75 70 0 70 0 0 185 0 185 115 0
115 0 0 -185z m1664 164 c53 -18 103 -69 116 -120 17 -63 15 -307 -4 -371 -15
-53 -55 -102 -104 -127 -12 -7 -67 -15 -122 -18 l-100 -6 -2 -161 -3 -161
-112 -3 -113 -3 0 497 0 497 203 -6 c127 -3 217 -10 241 -18z m589 0 c48 -13
103 -68 119 -121 18 -60 18 -665 0 -725 -16 -53 -56 -102 -100 -120 -23 -9
-97 -16 -233 -20 l-199 -6 0 76 0 77 138 0 c103 0 143 4 158 14 17 13 19 30
22 170 l4 156 -111 0 -111 0 0 75 c0 65 2 75 18 73 9 -1 59 0 110 0 l92 2 0
85 c0 123 -3 125 -170 125 l-130 0 0 79 0 79 178 -5 c97 -3 194 -9 215 -14z
m835 -51 l3 -68 -176 0 -175 0 0 -94 0 -93 100 -6 c164 -9 217 -54 241 -207
16 -104 6 -276 -19 -333 -40 -90 -92 -107 -349 -114 l-203 -6 0 497 0 496 288
-2 287 -3 3 -67z m710 -420 l-3 -493 -107 -3 c-60 -1 -108 1 -109 5 0 4 -1 76
-2 158 l-2 150 -57 3 -58 3 0 -84 c0 -110 -21 -179 -62 -209 -27 -19 -48 -23
-130 -26 l-98 -4 0 85 0 86 33 3 32 3 3 395 c1 217 4 401 7 408 3 9 69 12 280
12 l275 0 -2 -492z m362 307 l0 -185 60 0 60 0 0 185 0 185 115 0 115 0 0
-185 0 -185 70 0 70 0 0 -75 0 -75 -70 0 -70 0 -2 -232 -3 -233 -112 -3 -113
-3 0 236 0 235 -60 0 -60 0 0 -235 0 -236 -112 3 -113 3 -3 493 -2 492 115 0
115 0 0 -185z m-3055 -730 l0 -70 -322 -3 -323 -2 0 75 0 75 323 -2 322 -3 0
-70z m-732 -428 l-58 -58 78 37 79 37 30 -32 c17 -18 29 -33 27 -35 -2 -1 -40
-18 -84 -38 l-80 -36 -59 -97 -58 -97 -29 28 c-16 15 -29 32 -29 37 0 6 20 43
44 83 25 41 42 74 40 74 -3 0 -33 -27 -67 -60 l-62 -59 -27 26 c-16 15 -28 32
-28 37 0 6 62 70 137 143 l138 131 33 -31 32 -31 -57 -59z m3654 -50 l133
-142 -30 -30 -30 -30 -66 65 -67 65 42 -77 c22 -42 41 -83 41 -91 0 -7 -14
-24 -31 -36 l-32 -24 -40 44 c-22 24 -79 85 -128 135 -49 50 -89 95 -89 101 0
5 13 22 29 37 l28 27 62 -68 c33 -37 61 -64 61 -59 0 5 -19 44 -42 87 l-43 78
30 31 c16 16 31 30 34 29 3 0 66 -65 138 -142z m-3391 -83 l44 -36 -42 -77
c-23 -42 -67 -120 -98 -173 l-57 -97 -34 29 c-37 31 -37 24 4 91 10 17 9 22
-7 35 -18 13 -23 11 -53 -18 -33 -32 -34 -32 -60 -16 -15 9 -29 21 -31 26 -2
8 274 272 286 272 2 0 24 -16 48 -36z m3080 -59 l28 -84 93 -67 93 -67 -37
-28 -37 -27 -61 44 c-96 71 -101 70 -41 -4 31 -38 56 -72 56 -74 0 -3 -15 -17
-34 -32 l-35 -26 -120 152 c-67 84 -121 155 -121 158 0 3 16 16 36 29 l36 25
26 -34 c15 -19 38 -46 50 -60 26 -28 27 -31 -11 74 l-22 58 30 24 c17 13 33
24 37 24 4 0 19 -38 34 -85z m-2898 -76 c110 -74 125 -110 76 -184 -33 -50
-52 -65 -80 -65 -26 0 -28 -4 -44 -97 -7 -40 -18 -73 -24 -73 -6 0 -24 11 -40
23 l-29 24 16 66 c24 94 22 99 -19 37 -20 -30 -40 -59 -45 -64 -8 -9 -82 32
-77 43 12 28 205 321 211 321 5 0 29 -14 55 -31z m2744 -179 l97 -170 -40 -21
c-23 -11 -42 -19 -43 -17 -2 2 -22 36 -45 76 -40 68 -65 88 -77 59 -3 -8 13
-45 36 -84 22 -38 40 -74 40 -80 0 -5 -16 -17 -37 -27 -29 -14 -38 -15 -45 -4
-4 7 -40 69 -80 138 -39 69 -80 139 -90 157 l-19 32 41 21 c23 12 43 20 44 18
2 -2 17 -29 35 -60 18 -32 34 -58 36 -58 12 0 35 14 35 21 0 4 -15 34 -34 66
l-34 58 36 22 c20 13 39 23 42 23 3 -1 49 -77 102 -170z m-2402 -21 c0 -7
-121 -362 -125 -367 -6 -7 -75 33 -75 44 0 6 7 28 15 47 14 35 14 37 -7 48
-18 10 -24 8 -35 -7 -51 -68 -45 -65 -81 -45 l-33 17 117 161 117 161 53 -26
c30 -14 54 -29 54 -33z m2050 38 c0 -1 34 -76 75 -166 41 -90 75 -169 75 -176
0 -6 -16 -19 -35 -28 l-36 -17 -30 67 c-17 38 -35 77 -39 88 -13 30 -12 2 4
-93 l14 -84 -41 -17 -41 -18 -78 170 c-43 93 -78 175 -78 182 0 12 67 42 75
33 2 -1 20 -37 39 -78 l36 -75 -5 50 c-3 28 -8 70 -12 95 -5 43 -4 46 23 57
29 11 54 16 54 10z m-1831 -112 c74 -38 76 -57 21 -220 -56 -166 -79 -185
-181 -150 -93 33 -97 58 -39 230 48 145 68 169 128 161 23 -3 55 -12 71 -21z
m1567 -19 c8 -34 0 -43 -44 -51 -60 -10 -66 -17 -52 -59 8 -27 16 -36 27 -32
8 3 32 9 53 12 33 5 42 3 63 -20 26 -28 48 -91 49 -144 1 -48 -26 -70 -120
-96 l-81 -23 -20 66 c-50 169 -82 293 -78 304 3 9 151 61 189 66 4 1 10 -10
14 -23z m-1338 -51 c2 -2 -4 -31 -13 -65 -9 -34 -15 -66 -13 -71 2 -6 21 20
42 56 l39 66 41 -6 c22 -4 43 -9 44 -10 2 -2 -17 -37 -44 -77 l-47 -73 2 -118
c2 -111 1 -118 -16 -113 -10 3 -30 8 -45 12 l-28 6 -1 97 -1 96 -23 -90 c-12
-49 -26 -90 -31 -89 -5 0 -26 4 -47 8 -28 6 -36 12 -33 25 5 16 86 362 86 366
0 3 83 -17 88 -20z m1092 -191 c34 -102 60 -188 57 -190 -3 -3 -23 -8 -45 -11
l-39 -5 -11 45 c-11 40 -14 44 -37 39 -23 -4 -25 -9 -25 -52 0 -41 -3 -49 -22
-54 -61 -16 -58 -24 -58 193 l0 199 53 10 c28 5 55 10 59 11 3 0 34 -83 68
-185z m-762 140 c28 -4 52 -9 52 -13 0 -3 -3 -17 -7 -30 -5 -22 -10 -23 -54
-18 l-49 6 0 -43 c0 -43 0 -43 41 -49 50 -7 52 -8 44 -40 -6 -24 -10 -25 -54
-20 l-48 5 -6 -58 c-3 -32 -4 -60 -2 -62 2 -3 24 -7 49 -9 43 -5 45 -7 39 -32
-3 -14 -7 -28 -10 -30 -4 -5 -173 16 -179 22 -4 3 28 266 42 350 l6 39 42 -6
c22 -3 65 -8 94 -12z m488 -16 c-3 -13 -13 -53 -23 -89 l-17 -66 37 -103 c21
-56 36 -104 35 -105 -2 -2 -22 -6 -44 -10 l-42 -6 -18 53 c-9 29 -23 67 -31
83 -13 28 -14 24 -9 -52 l4 -82 -40 -6 c-22 -4 -43 -3 -48 1 -7 9 -30 280 -30
357 l0 37 44 0 43 0 8 -82 8 -83 18 73 c25 105 23 102 70 102 38 0 41 -2 35
-22z m-286 -211 l0 -32 -60 3 c-58 4 -60 5 -60 31 0 15 2 30 4 32 2 2 29 2 60
1 55 -4 56 -4 56 -35z"/>
<path d="M3035 5840 c-98 -26 -140 -45 -213 -97 -73 -52 -141 -138 -173 -221
-22 -54 -23 -72 -27 -389 l-4 -333 61 0 61 0 0 265 0 265 70 0 70 0 0 -265 0
-265 60 0 60 0 0 380 0 380 70 0 70 0 0 -380 0 -380 60 0 60 0 0 180 0 180 75
0 75 0 0 -180 0 -180 60 0 60 0 0 55 0 55 70 0 70 0 0 -55 0 -55 50 0 50 0 0
313 c0 229 -4 325 -14 362 -49 183 -211 328 -414 370 -98 20 -221 18 -307 -5z"/>
<path d="M2338 4659 c-17 -9 -18 -36 -18 -325 0 -339 7 -409 55 -527 71 -174
241 -341 427 -419 160 -67 373 -94 549 -69 294 43 541 214 655 455 66 138 67
146 71 528 5 400 13 371 -99 366 l-61 -3 -2 -285 c-2 -308 -9 -365 -54 -465
-79 -172 -235 -298 -446 -360 -73 -22 -112 -27 -205 -28 -146 -1 -231 19 -369
85 -87 42 -116 62 -181 127 -56 55 -87 97 -113 151 -59 119 -67 176 -67 498
l0 282 -62 0 c-35 0 -71 -5 -80 -11z"/>
<path d="M2622 4363 c4 -284 6 -312 25 -365 55 -147 174 -254 353 -316 64 -22
92 -26 195 -26 88 0 136 4 180 18 194 58 336 193 379 358 21 80 30 279 21 472
l-7 166 -575 0 -575 0 4 -307z"/>
<path d="M1800 2710 c-19 -19 -20 -33 -20 -243 0 -252 2 -262 63 -260 20 1 40
4 46 8 7 4 11 88 11 251 l0 244 -26 10 c-37 14 -52 12 -74 -10z"/>
<path d="M2510 2506 l0 -184 37 3 c65 6 73 26 73 184 0 162 -7 181 -71 181
l-39 0 0 -184z"/>
<path d="M3800 2186 l0 -186 40 0 c30 0 43 5 55 23 30 47 32 281 2 321 -7 8
-31 18 -54 22 l-43 7 0 -187z"/>
<path d="M4525 2682 c-3 -3 -5 -88 -5 -189 l0 -183 61 0 60 0 -3 188 -3 187
-52 1 c-29 1 -55 -1 -58 -4z"/>
<path d="M1582 1247 c-43 -44 -51 -56 -39 -65 11 -9 22 1 55 53 23 36 40 65
39 65 -2 0 -26 -24 -55 -53z"/>
<path d="M1831 1113 c-27 -43 -28 -49 -13 -54 25 -9 37 -2 57 35 17 32 16 66
-4 66 -5 0 -23 -21 -40 -47z"/>
<path d="M2082 929 c-23 -33 -40 -65 -36 -70 14 -23 31 -4 56 61 14 39 25 70
24 70 -1 0 -21 -27 -44 -61z"/>
<path d="M2363 888 c-5 -13 -25 -69 -43 -125 -28 -81 -32 -105 -22 -115 20
-20 36 7 77 131 31 92 35 115 24 122 -21 13 -25 11 -36 -13z"/>
<path d="M3945 730 c-3 -5 2 -34 10 -65 13 -42 21 -55 33 -53 13 3 16 13 15
42 -4 58 -40 105 -58 76z"/>
<path d="M3651 703 c-1 -57 2 -73 13 -73 25 0 26 15 6 81 l-18 64 -1 -72z"/>
</g>
</svg>
